<svg xmlns="http://www.w3.org/2000/svg" width="24" height="24" viewBox="0 0 48 48" aria-hidden="true">
  <path fill="#FFC107" d="M43.6 20.5h-1.9v-.1H24v7.2h11.3c-1.7 4.6-6 7.9-11.3 7.9-6.6 0-12-5.4-12-12s5.4-12 12-12c3.1 0 5.9 1.2 8 3l5.1-5.1C33.6 6.3 29.1 4.3 24 4.3c-10.9 0-19.7 8.8-19.7 19.7S13.1 43.7 24 43.7 43.7 34.9 43.7 24c0-1.2-.1-2.3-.4-3.5z"/>
  <path fill="#FF3D00" d="M6.3 14.7l5.9 4.3c1.6-3.6 5.2-6.1 9.4-6.1 3.1 0 5.9 1.2 8 3l5.1-5.1C33.6 6.3 29.1 4.3 24 4.3c-7.6 0-14.1 4.3-17.7 10.4z"/>
  <path fill="#4CAF50" d="M24 43.7c5.9 0 10.9-1.9 14.5-5.3l-6.7-5.5c-2 1.4-4.6 2.2-7.8 2.2-5.3 0-9.6-3.3-11.3-7.9l-6.8 5.2C9.4 39.1 16.1 43.7 24 43.7z"/>
  <path fill="#1976D2" d="M43.6 20.5h-1.9v-.1H24v7.2h11.3c-1 2.7-2.8 4.9-5.2 6.5l6.7 5.5c-.5.4 7.3-5.3 7.3-15.6 0-1.2-.1-2.3-.4-3.5z"/>
</svg>

